# AST/ASF file generated using VICON BodyLanguage
# -----------------------------------------------
:version 1.10
:name VICON
:units
  mass 1.0
  length 0.45
  angle deg
:documentation
   .ast/.asf automatically generated from VICON data using
   VICON BodyBuilder and BodyLanguage model FoxedUp or BRILLIANT.MOD
:root
   order TX TY TZ RX RY RZ
   axis XYZ
   position 0 0 0  
   orientation 0 0 0 
:bonedata
  begin
     id 1 
     name lhipjoint
     direction 0.646657 -0.683706 0.338203 
     length 2.4948 
     axis 0 0 0  XYZ
  end
  begin
     id 2 
     name lfemur
     direction 0.34202 -0.939693 0  
     length 6.79491  
     axis 0 0 20  XYZ
    dof rx ry rz
    limits (-160.0 20.0)
           (-70.0 70.0)
           (-60.0 70.0)
  end
  begin
     id 3 
     name ltibia
     direction 0.34202 -0.939693 0   
     length 7.56807   
     axis 0 0 20   XYZ
    dof rx
    limits (-10.0 170.0)
  end
  begin
     id 4 
     name lfoot
     direction 0.0679796 -0.186772 0.980048   
     length 2.53018   
     axis -90 7.62852e-016 20   XYZ
    dof rx rz
    limits (-45.0 90.0)
           (-70.0 20.0)
  end
  begin
     id 5 
     name ltoes
     direction 1.53625e-011 -4.21881e-011 1   
     length 1.26912   
     axis -90 7.62852e-016 20   XYZ
    dof rx
    limits (-90.0 20.0)
  end
  begin
     id 6 
     name rhipjoint
     direction -0.618868 -0.704065 0.348274   
     length 2.42265  
     axis 0 0 0  XYZ 
  end
  begin
     id 7 
     name rfemur
     direction -0.34202 -0.939693 0   
     length 6.73814   
     axis 0 0 -20   XYZ
    dof rx ry rz
    limits (-160.0 20.0)
           (-70.0 70.0)
           (-70.0 60.0)
  end
  begin
     id 8 
     name rtibia
     direction -0.34202 -0.939693 0   
     length 7.66799   
     axis 0 0 -20   XYZ
    dof rx
    limits (-10.0 170.0)
 end
 begin
     id 9 
     name rfoot
     direction -0.0727352 -0.199838 0.977125   
     length 2.57224  
     axis -90 -7.62852e-016 -20   XYZ
    dof rx rz
    limits (-45.0 90.0)
           (-20.0 70.0)
  end
  begin
     id 10 
     name rtoes
     direction -1.53501e-011 -4.21858e-011 1   
     length 1.28858   
     axis -90 -7.62852e-016 -20   XYZ
    dof rx
    limits (-90.0 20.0)
  end
  begin
     id 11 
     name lowerback
     direction -0.0172471 0.995767 -0.0902851   
     length 2.20206   
     axis 0 0 0   XYZ
    dof rx ry rz
    limits (-20.0 45.0)
           (-30.0 30.0)
           (-30.0 30.0)
  end
  begin
     id 12 
     name upperback
     direction -0.000110737 0.999714 0.0239043   
     length 2.19523   
     axis 0 0 0   XYZ
    dof rx ry rz
    limits (-20.0 45.0)
           (-30.0 30.0)
           (-30.0 30.0)
  end
  begin
     id 13 
     name thorax
     direction 0.00704869 0.997783 0.0661741   
     length 2.21977   
     axis 0 0 0   XYZ
    dof rx ry rz
    limits (-20.0 45.0)
           (-30.0 30.0)
           (-30.0 30.0)
  end
  begin
     id 14 
     name lowerneck
     direction -0.00407501 0.995527 0.0943846   
     length 1.83142   
     axis 0 0 0   XYZ
    dof rx ry rz
    limits (-20.0 45.0)
           (-30.0 30.0)
           (-30.0 30.0)
  end
  begin
     id 15 
     name upperneck
     direction 0.0640586 0.986486 -0.150807   
     length 1.84616   
     axis 0 0 0   XYZ
    dof rx ry rz
    limits (-20.0 45.0)
           (-30.0 30.0)
           (-30.0 30.0)
  end
  begin
     id 16
     name head
     direction 0.0188017 0.99791 -0.0618239  
     length 1.85932  
     axis 0 0 0   XYZ
    dof rx ry rz
    limits (-20.0 45.0)
           (-30.0 30.0)
           (-30.0 30.0)
  end
  begin
     id 17 
     name lclavicle
     direction 0.976074 0.206905 0.066852  
     length 3.81043  
     axis 0 0 0   XYZ
    dof ry rz
    limits (-20.0 10.0)
           (0.0 20.0)
  end
  begin
     id 18 
     name lhumerus
     direction 1 -4.48971e-011 1.86916e-027   
     length 5.37587   
     axis 180 -30 -90   XYZ
    dof rx ry rz
    limits (-60.0 90.0)
           (-90.0 90.0)
           (-90.0 90.0)
  end
  begin
     id 19
     name lradius
     direction 1 -4.48968e-011 1.69187e-027   
     length 3.35977   
     axis 180 -30 -90   XYZ
    dof rx
    limits (-10.0 170.0)
  end
  begin
     id 20
     name lwrist
     direction 1 -4.48968e-011 5.8978e-027   
     length 1.67988   
     axis -3.27506e-015 90 90   XYZ
    dof ry
    limits (-180.0 0.0)
 end
  begin
     id 21 
     name lhand
     direction 1 -4.49028e-011 1.18071e-026   
     length 0.561859   
     axis -7.52654e-015 90 90   XYZ
    dof rx rz
    limits (-90.0 90.0)
           (-45.0 45.0)
  end
  begin
     id 22 
     name lfingers
     direction 1 -4.48927e-011 2.35758e-026   
     length 0.452985   
     axis -1.50534e-014 90 90   XYZ
    dof rx
    limits (0.0 90.0)
  end
  begin
     id 23
     name lthumb
     direction 0.707107 -6.34898e-011 0.707107   
     length 0.650399   
     axis -90 45 5.69224e-014   XYZ
    dof rx rz
    limits (-45.0 45.0)
           (-45.0 45.0)
  end
  begin
     id 24 
     name rclavicle
     direction -0.988403 0.151789 0.00439714   
     length 3.6942  
     axis 0 0 0   XYZ 
    dof ry rz
    limits (-10.0 20.0)
           (-20.0 0.0)
  end
  begin
     id 25 
     name rhumerus
     direction -1 -4.48978e-011 1.62495e-027  
     length 5.22819   
     axis 180 30 90   XYZ
    dof rx ry rz
    limits (-90.0 60.0)
           (-90.0 90.0)
           (-90.0 90.0)
  end
  begin
     id 26 
     name rradius
     direction -1 -4.48961e-011 3.47796e-027   
     length 3.40764   
     axis 180 30 90   XYZ
    dof rx
    limits (-10.0 170.0)
  end
  begin
     id 27 
     name rwrist
     direction -1 -4.48949e-011 5.89602e-027   
     length 1.70382   
     axis -3.27506e-015 -90 -90   XYZ
    dof ry
    limits (-180.0 0.0)
  end
  begin
     id 28
     name rhand
     direction -1 -4.48977e-011 1.17973e-026   
     length 0.583255   
     axis -7.52654e-015 -90 -90   XYZ
    dof rx rz
    limits (-90.0 90.0)
           (-45.0 45.0)
  end
  begin
     id 29
     name rfingers
     direction -1 -4.49099e-011 2.36408e-026   
     length 0.470235   
     axis -1.50534e-014 -90 -90   XYZ
    dof rx
    limits (0.0 90.0)
  end
  begin
     id 30
     name rthumb
     direction -0.707107 -6.35011e-011 0.707107   
     length 0.675167   
     axis -90 -45 -5.69224e-014   XYZ
    dof rx rz
    limits (-45.0 45.0)
           (-45.0 45.0)
  end
:hierarchy
  begin
    root lhipjoint rhipjoint lowerback
    lhipjoint lfemur
    lfemur ltibia
    ltibia lfoot
    lfoot ltoes
    rhipjoint rfemur
    rfemur rtibia
    rtibia rfoot
    rfoot rtoes
    lowerback upperback
    upperback thorax
    thorax lowerneck lclavicle rclavicle
    lowerneck upperneck
    upperneck head
    lclavicle lhumerus
    lhumerus lradius
    lradius lwrist
    lwrist lhand lthumb
    lhand lfingers
    rclavicle rhumerus
    rhumerus rradius
    rradius rwrist
    rwrist rhand rthumb
    rhand rfingers
  end

#!OML:ASF G:\JayActor3\Patient Classification 1\Patient 1\Session 2\male.ASF
:FULLY-SPECIFIED
:DEGREES
1935
root 18.4886 16.9654 -5.77326 2105.72 87.274 -1496.9
lowerback -5.4449 1.2582 1.40569
upperback 1.346 1.59809 -0.437639
thorax 4.49796 0.836878 -1.093
lowerneck -7.90026 -2.84381 -3.52666
upperneck -1.56918 -3.47732 8.39269
head 1.1178 -1.539 3.21588
rclavicle -1.72446e-014 1.98785e-015
rhumerus -31.173 -6.92494 -84.7534
rradius 16.8869
rwrist 7.59203
rhand -22.0095 5.25905
rfingers 7.12502
rthumb 4.39957 -24.6753
lclavicle -1.72446e-014 1.98785e-015
lhumerus -32.3614 25.7145 75.2076
lradius 12.8205
lwrist -8.82152
lhand -17.5511 14.9176
lfingers 7.12502
lthumb 8.70356 44.7182
rfemur 2.15666 -5.19568 22.966
rtibia 43.6708
rfoot 1.84648 -1.01737
rtoes 28.9148
lfemur -17.7612 16.5466 -25.5639
ltibia 18.9685
lfoot -4.12052 -0.381696
ltoes 8.26131
1936
root 18.5888 16.967 -5.79045 2112 87.4304 -1490.49
lowerback -5.2986 1.22335 1.04235
upperback 1.39687 1.58234 -0.511235
thorax 4.4593 0.8206 -0.969328
lowerneck -7.90206 -2.80711 -3.5049
upperneck -1.68817 -3.4204 8.25442
head 1.07136 -1.51486 3.16622
rclavicle 1.34677e-014 -1.39149e-014
rhumerus -31.3994 -6.83391 -84.4708
rradius 16.7661
rwrist 7.78021
rhand -22.039 5.24514
rfingers 7.12502
rthumb 4.37107 -24.6897
lclavicle 1.34677e-014 -1.39149e-014
lhumerus -32.0856 24.9732 75.7865
lradius 13.1407
lwrist -7.9749
lhand -17.4276 14.9449
lfingers 7.12502
lthumb 8.82274 44.7405
rfemur 1.05817 -5.08667 22.3749
rtibia 46.0009
rfoot 3.02566 -1.81704
rtoes 29.4542
lfemur -17.0191 17.0724 -25.8561
ltibia 18.5693
lfoot -4.26362 -0.818485
ltoes 8.41756
1937
root 18.6876 16.9679 -5.80737 2118.9 87.5478 -1483.43
lowerback -5.14179 1.18542 0.686663
upperback 1.45989 1.56119 -0.585119
thorax 4.42766 0.802024 -0.850727
lowerneck -7.88418 -2.7631 -3.46895
upperneck -1.82721 -3.35395 8.11308
head 1.01413 -1.48659 3.11343
rclavicle 1.89839e-014 -8.74653e-015
rhumerus -31.5833 -6.68539 -84.2377
rradius 16.66
rwrist 7.96528
rhand -22.0846 5.20851
rfingers 7.12502
rthumb 4.32711 -24.7273
lclavicle 1.89839e-014 -8.74653e-015
lhumerus -31.7871 24.118 76.4246
lradius 13.5301
lwrist -7.0308
lhand -17.3323 14.9635
lfingers 7.12502
lthumb 8.91467 44.7552
rfemur -0.0292539 -4.93827 21.807
rtibia 48.2668
rfoot 4.2478 -2.63972
rtoes 29.9432
lfemur -16.2524 17.6175 -26.1286
ltibia 18.1571
lfoot -4.40625 -1.27731
ltoes 8.52253
1938
root 18.7849 16.9677 -5.82401 2126.06 87.6222 -1476.11
lowerback -4.97715 1.14387 0.345712
upperback 1.53201 1.5333 -0.656474
thorax 4.40155 0.78055 -0.738338
lowerneck -7.84422 -2.71361 -3.42761
upperneck -1.98033 -3.28038 7.97319
head 0.94821 -1.45526 3.06064
rclavicle -1.31446e-014 3.18055e-015
rhumerus -31.7291 -6.5425 -84.025
rradius 16.5631
rwrist 8.18838
rhand -22.1463 5.15892
rfingers 7.12502
rthumb 4.26745 -24.7781
lclavicle -1.31446e-014 3.18055e-015
lhumerus -31.4825 23.2055 77.0857
lradius 13.9745
lwrist -6.05577
lhand -17.2729 14.9813
lfingers 7.12502
lthumb 8.97203 44.7705
rfemur -1.10332 -4.75146 21.2737
rtibia 50.458
rfoot 5.52193 -3.49191
rtoes 30.4292
lfemur -15.4711 18.1713 -26.3741
ltibia 17.7448
lfoot -4.54549 -1.75025
ltoes 8.58261
1939
root 18.8804 16.9664 -5.8406 2133.01 87.655 -1468.99
lowerback -4.81374 1.09767 0.0296155
upperback 1.60837 1.49656 -0.724009
thorax 4.38129 0.755318 -0.636517
lowerneck -7.78685 -2.65987 -3.37754
upperneck -2.13623 -3.20238 7.83226
head 0.878172 -1.42206 3.00626
rclavicle -7.92654e-015 7.95139e-015
rhumerus -31.8406 -6.39609 -83.8363
rradius 16.4696
rwrist 8.41895
rhand -22.2305 5.12188
rfingers 7.12502
rthumb 4.18622 -24.8167
lclavicle -7.92654e-015 7.95139e-015
lhumerus -31.1795 22.2493 77.7568
lradius 14.4679
lwrist -5.06298
lhand -17.2586 15.0031
lfingers 7.12502
lthumb 8.98579 44.7917
rfemur -2.17162 -4.53285 20.7842
rtibia 52.566
rfoot 6.84558 -4.35852
rtoes 30.9176
lfemur -14.6948 18.6942 -26.5861
ltibia 17.3501
lfoot -4.6929 -2.19798
ltoes 8.64066
1940
root 18.9746 16.9642 -5.85731 2139.34 87.6477 -1462.49
lowerback -4.66078 1.04974 -0.250917
upperback 1.68887 1.4543 -0.785687
thorax 4.37234 0.72818 -0.548674
lowerneck -7.72041 -2.60217 -3.32499
upperneck -2.2866 -3.12022 7.69586
head 0.808509 -1.38672 2.9533
rclavicle -4.77083e-015 6.75868e-015
rhumerus -31.92 -6.28794 -83.652
rradius 16.3803
rwrist 8.675
rhand -22.3238 5.10108
rfingers 7.12502
rthumb 4.09607 -24.8393
lclavicle -4.77083e-015 6.75868e-015
lhumerus -30.8766 21.2953 78.4154
lradius 14.9918
lwrist -4.1049
lhand -17.2931 15.0289
lfingers 7.12502
lthumb 8.95249 44.8189
rfemur -3.23399 -4.28129 20.3479
rtibia 54.582
rfoot 8.20695 -5.22673
rtoes 31.4422
lfemur -13.9399 19.1523 -26.7583
ltibia 16.993
lfoot -4.86184 -2.57978
ltoes 8.67241
1941
root 19.0675 16.9613 -5.87434 2144.68 87.6095 -1456.99
lowerback -4.52542 0.999399 -0.48675
upperback 1.76897 1.40509 -0.838512
thorax 4.37411 0.698578 -0.476867
lowerneck -7.65164 -2.54144 -3.27105
upperneck -2.4203 -3.0357 7.56171
head 0.744048 -1.34998 2.90103
rclavicle -8.34896e-015 2.38542e-015
rhumerus -31.9704 -6.25081 -83.4538
rradius 16.2953
rwrist 8.96444
rhand -22.41 5.09291
rfingers 7.12502
rthumb 4.01284 -24.849
lclavicle -8.34896e-015 2.38542e-015
lhumerus -30.5743 20.3633 79.0532
lradius 15.5302
lwrist -3.19455
lhand -17.3907 15.0523
lfingers 7.12502
lthumb 8.85829 44.8464
rfemur -4.29456 -4.004 19.9715
rtibia 56.498
rfoot 9.56881 -6.05167
rtoes 31.9839
lfemur -13.2255 19.5043 -26.8866
ltibia 16.6921
lfoot -5.06953 -2.85378
ltoes 8.67391
1942
root 19.1594 16.9582 -5.89191 2148.99 87.5561 -1452.54
lowerback -4.41665 0.946845 -0.67758
upperback 1.84722 1.34963 -0.884395
thorax 4.39021 0.666861 -0.423047
lowerneck -7.58984 -2.48029 -3.21691
upperneck -2.5257 -2.9528 7.43182
head 0.690408 -1.31348 2.85014
rclavicle -5.59082e-015 7.95139e-015
rhumerus -31.9993 -6.29367 -83.2388
rradius 16.2211
rwrist 9.26677
rhand -22.4924 5.10927
rfingers 7.12502
rthumb 3.93329 -24.8342
lclavicle -5.59082e-015 7.95139e-015
lhumerus -30.269 19.4624 79.6655
lradius 16.0726
lwrist -2.34068
lhand -17.5437 15.07
lfingers 7.12502
lthumb 8.71071 44.8703
rfemur -5.35538 -3.71347 19.6478
rtibia 58.3061
rfoot 10.817 -6.78725
rtoes 32.4369
lfemur -12.5619 19.6969 -26.9744
ltibia 16.4619
lfoot -5.327 -2.97895
ltoes 8.72995
1943
root 19.2501 16.9549 -5.91003 2152.15 87.5007 -1449.25
lowerback -4.33298 0.890893 -0.817641
upperback 1.92388 1.28606 -0.920349
thorax 4.42006 0.632217 -0.387582
lowerneck -7.54176 -2.41904 -3.1637
upperneck -2.59682 -2.87206 7.30302
head 0.65058 -1.27741 2.79967
rclavicle 1.91082e-014 1.19271e-015
rhumerus -32.0115 -6.41691 -83.0049
rradius 16.1659
rwrist 9.55476
rhand -22.5632 5.14946
rfingers 7.12502
rthumb 3.86492 -24.7952
lclavicle 1.91082e-014 1.19271e-015
lhumerus -29.9543 18.605 80.2517
lradius 16.6086
lwrist -1.55405
lhand -17.7435 15.0871
lfingers 7.12502
lthumb 8.51792 44.8953
rfemur -6.41498 -3.41475 19.3846
rtibia 60.0001
rfoot 11.7517 -7.37731
rtoes 32.5354
lfemur -11.9535 19.7142 -27.0199
ltibia 16.3085
lfoot -5.63749 -2.94612
ltoes 8.81082
1944
root 19.3394 16.9516 -5.92851 2154.47 87.4563 -1446.83
lowerback -4.27258 0.829862 -0.920754
upperback 1.99939 1.21324 -0.948034
thorax 4.46272 0.593744 -0.364611
lowerneck -7.50841 -2.35896 -3.11494
upperneck -2.63467 -2.79467 7.17978
head 0.624585 -1.24228 2.75175
rclavicle -1.66482e-015 -1.19271e-015
rhumerus -32.0138 -6.61432 -82.7543
rradius 16.1436
rwrist 9.80512
rhand -22.6177 5.20418
rfingers 7.12502
rthumb 3.81232 -24.7415
lclavicle -1.66482e-015 -1.19271e-015
lhumerus -29.6293 17.8047 80.8072
lradius 17.1333
lwrist -0.852631
lhand -17.9741 15.0988
lfingers 7.12502
lthumb 8.29529 44.916
rfemur -7.47108 -3.1163 19.1703
rtibia 61.5749
rfoot 12.214 -7.79022
rtoes 32.1211
lfemur -11.3994 19.568 -27.038
ltibia 16.2278
lfoot -5.99576 -2.77249
ltoes 8.90558
1945
root 19.427 16.9479 -5.94713 2156.19 87.4332 -1445.02
lowerback -4.22744 0.761828 -0.999741
upperback 2.07438 1.12943 -0.968251
thorax 4.51401 0.550268 -0.348094
lowerneck -7.49422 -2.30056 -3.06857
upperneck -2.63569 -2.72156 7.05873
head 0.614186 -1.20856 2.70479
rclavicle -4.99446e-015 3.97569e-015
rhumerus -32.0112 -6.82785 -82.5136
rradius 16.1655
rwrist 9.93953
rhand -22.6637 5.26187
rfingers 7.12502
rthumb 3.76784 -24.6846
lclavicle -4.99446e-015 3.97569e-015
lhumerus -29.291 17.0471 81.3413
lradius 17.6456
lwrist -0.212419
lhand -18.2226 15.1092
lfingers 7.12502
lthumb 8.05549 44.9357
rfemur -8.52185 -2.82536 18.995
rtibia 63.0283
rfoot 12.1164 -8.01535
rtoes 31.1044
lfemur -10.8941 19.2886 -27.0428
ltibia 16.2082
lfoot -6.38575 -2.489
ltoes 8.97333
